<svg width="41" height="78" viewBox="0 0 41 78" fill="none" xmlns="http://www.w3.org/2000/svg">
<path d="M13.6758 55.5352V52.793C13.6758 48.832 14.2852 45.582 15.5039 43.043C16.7227 40.4701 18.9909 37.7617 22.3086 34.918C26.9128 31.0247 29.8073 28.0964 30.9922 26.1328C32.2109 24.1693 32.8203 21.7995 32.8203 19.0234C32.8203 15.5703 31.7031 12.9128 29.4688 11.0508C27.2682 9.15495 24.0859 8.20703 19.9219 8.20703C17.2474 8.20703 14.6406 8.52865 12.1016 9.17188C9.5625 9.78125 6.65104 10.9154 3.36719 12.5742L0.371094 5.71875C6.76953 2.36719 13.4557 0.691406 20.4297 0.691406C26.8958 0.691406 31.9232 2.28255 35.5117 5.46484C39.1003 8.64714 40.8945 13.1328 40.8945 18.9219C40.8945 21.3932 40.556 23.5768 39.8789 25.4727C39.2357 27.3346 38.2708 29.112 36.9844 30.8047C35.6979 32.4635 32.9219 35.1549 28.6562 38.8789C25.237 41.7904 22.9688 44.2109 21.8516 46.1406C20.7682 48.0703 20.2266 50.6432 20.2266 53.8594V55.5352H13.6758ZM11.1875 70.6172C11.1875 66.013 13.2188 63.7109 17.2812 63.7109C19.2448 63.7109 20.7513 64.3034 21.8008 65.4883C22.8841 66.6732 23.4258 68.3828 23.4258 70.6172C23.4258 72.7839 22.8841 74.4766 21.8008 75.6953C20.7174 76.8802 19.2109 77.4727 17.2812 77.4727C15.5208 77.4727 14.0651 76.9479 12.9141 75.8984C11.763 74.8151 11.1875 73.0547 11.1875 70.6172Z" fill="#D9D9D9"/>
</svg>
